<?xml version="1.0" standalone="no"?>
<!DOCTYPE svg PUBLIC "-//W3C//DTD SVG 20010904//EN"
 "http://www.w3.org/TR/2001/REC-SVG-20010904/DTD/svg10.dtd">
<svg version="1.0" xmlns="http://www.w3.org/2000/svg"
 width="512.000000pt" height="512.000000pt" viewBox="0 0 512.000000 512.000000"
 preserveAspectRatio="xMidYMid meet">
<metadata>
Created by potrace 1.14, written by Peter Selinger 2001-2017
</metadata>
<g transform="translate(0.000000,512.000000) scale(0.100000,-0.100000)"
fill="#000000" stroke="none">
<path d="M1292 3808 c-7 -7 -12 -16 -12 -20 0 -5 -81 -201 -181 -436 -99 -235
-183 -433 -186 -439 -4 -10 48 -13 241 -13 145 0 246 -4 246 -9 0 -9 -54 -141
-100 -246 -10 -22 -52 -121 -94 -221 l-77 -181 -245 0 c-135 0 -249 -4 -254
-9 -7 -8 -147 -335 -316 -739 -30 -71 -59 -138 -64 -147 -6 -10 -10 -20 -10
-23 0 -3 554 -5 1231 -5 l1230 0 15 38 c8 20 21 51 29 67 7 17 32 75 55 130
23 55 47 114 55 130 7 17 25 59 40 95 14 36 36 85 47 110 11 25 26 61 33 80
33 88 35 90 95 90 268 1 690 9 710 13 14 3 48 9 75 13 28 4 52 8 55 9 3 1 25
5 50 9 161 29 369 136 496 253 147 136 290 388 382 673 29 90 33 112 37 220 7
183 -57 320 -200 427 -91 68 -229 113 -405 132 -145 16 -2962 15 -2978 -1z"/>
<path d="M2836 1431 c-26 -28 -24 -80 4 -103 68 -55 154 37 95 102 -23 26 -76
26 -99 1z m86 -8 c28 -33 29 -53 3 -79 -13 -13 -30 -24 -37 -24 -27 0 -58 31
-58 57 0 54 60 83 92 46z"/>
<path d="M2858 1397 c-3 -13 -1 -32 3 -43 7 -17 8 -16 9 6 l1 25 18 -22 c11
-13 22 -23 26 -23 4 0 2 7 -6 16 -10 13 -10 17 1 24 20 12 4 40 -24 40 -17 0
-25 -7 -28 -23z m47 3 c3 -5 -3 -10 -14 -10 -12 0 -21 5 -21 10 0 6 6 10 14
10 8 0 18 -4 21 -10z"/>
</g>
</svg>
